<svg xmlns="http://www.w3.org/2000/svg" xmlns:xlink="http://www.w3.org/1999/xlink" viewBox="0 0 277.55 121.04"><defs><style>.cls-1,.cls-2,.cls-4,.cls-5,.cls-6,.cls-7,.cls-8{stroke-miterlimit:10;}.cls-1{fill:url(#未命名漸層_19);stroke:url(#未命名漸層_19-2);}.cls-2{fill:url(#未命名漸層_19-3);stroke:url(#未命名漸層_19-4);}.cls-3{fill:#f4de4c;}.cls-4{fill:#231815;}.cls-4,.cls-5,.cls-6,.cls-7{stroke:#231815;}.cls-4,.cls-5{stroke-width:0.25px;}.cls-5,.cls-6,.cls-7,.cls-8{fill:none;}.cls-6{stroke-width:2.07px;}.cls-7{stroke-width:2px;}.cls-8{stroke-width:3px;stroke:url(#夏天);}</style><linearGradient id="未命名漸層_19" x1="11.71" y1="52.71" x2="76.84" y2="52.71" gradientUnits="userSpaceOnUse"><stop offset="0" stop-color="#fff11d"/><stop offset="0" stop-color="#ffee1b"/><stop offset="0" stop-color="#fddb0c"/><stop offset="0" stop-color="#fbd003"/><stop offset="0" stop-color="#fbcc00"/><stop offset="0.67" stop-color="#f0932e"/><stop offset="0.89" stop-color="#e9652d"/><stop offset="1" stop-color="#e4352b"/></linearGradient><linearGradient id="未命名漸層_19-2" x1="11.21" y1="52.71" x2="77.34" y2="52.71" xlink:href="#未命名漸層_19"/><linearGradient id="未命名漸層_19-3" x1="64.46" y1="57.27" x2="82.81" y2="57.27" xlink:href="#未命名漸層_19"/><linearGradient id="未命名漸層_19-4" x1="63.96" y1="57.27" x2="83.31" y2="57.27" xlink:href="#未命名漸層_19"/><radialGradient id="夏天" cx="50" cy="50" r="50" gradientUnits="userSpaceOnUse"><stop offset="0" stop-color="#fff"/><stop offset="0.09" stop-color="#ffedd8"/><stop offset="0.21" stop-color="#ffd5a7"/><stop offset="0.33" stop-color="#ffc17d"/><stop offset="0.46" stop-color="#ffb05b"/><stop offset="0.59" stop-color="#ffa340"/><stop offset="0.72" stop-color="#ff9a2d"/><stop offset="0.86" stop-color="#ff9522"/><stop offset="1" stop-color="#ff931e"/></radialGradient></defs><title>資產 8</title><g id="圖層_2" data-name="圖層 2"><g id="圖層_1-2" data-name="圖層 1"><path class="cls-1" d="M76.84,41.94q0,.66-2.87,3.09a46,46,0,0,1-5.8,4.2,41.19,41.19,0,0,0-3.86,5,49.84,49.84,0,0,0-3,6.25,24,24,0,0,1-5.58,8.25,30.22,30.22,0,0,1-9.32,5.44A47.23,47.23,0,0,1,28.76,77.6q-7.64,0-12.34-3t-4.71-7.8A11.2,11.2,0,0,1,15.27,59,25.53,25.53,0,0,1,25,53a33.16,33.16,0,0,1,11.44-2.28,5,5,0,0,1,.78.05,9.43,9.43,0,0,1,.52-2.33q-.67.05-1.59.05a20.32,20.32,0,0,1-9.51-1.88q-3.54-1.88-3.54-5,0-5.41,8.56-9.6a44.23,44.23,0,0,1,19.68-4.19q8.82,0,14.42,3.16a25.11,25.11,0,0,1,5.75-1q3.59,0,3.6,2.12,0,2-4.19,4.88a12.66,12.66,0,0,1,.3,2.44,10.71,10.71,0,0,1-2.34,6.13q-.7,1-1,1a.2.2,0,0,1-.22-.16.71.71,0,0,1,.15-.27,10.38,10.38,0,0,0,2.74-6.79,12.88,12.88,0,0,0-.15-2,77.94,77.94,0,0,1-13.81,6.8,74.05,74.05,0,0,1-14.51,4A11,11,0,0,0,40.25,51Q50,52.15,50,58.57v.53q7.38-1.43,18.13-10.48a44,44,0,0,1,4.93-4.78q2.52-2.07,3.45-2.07A.29.29,0,0,1,76.84,41.94Zm-10,8.38q-10,7.93-17,9.29-.74,3.64-4.76,6.62a13.57,13.57,0,0,1-8.14,3,6.55,6.55,0,0,1-3.65-1,2.78,2.78,0,0,1-1.46-2.36,3.39,3.39,0,0,1,1.39-2.63,4.7,4.7,0,0,1,3.1-1.17Q39,62.1,39,63.8a1.71,1.71,0,0,1-.85,1.38,3.17,3.17,0,0,1-1.89.61q-2,0-2-1.25a1.92,1.92,0,0,1,.15-.58,1.21,1.21,0,0,0,.07-.4q0-.16-.22-.16-.56,0-1.11.86a3,3,0,0,0-.56,1.63A2.42,2.42,0,0,0,33.84,68a5.65,5.65,0,0,0,3.15.82,13.13,13.13,0,0,0,7.77-2.94q4-2.94,4.5-6.13a14.83,14.83,0,0,1-1.89.11,11.31,11.31,0,0,1-7.49-2.29,7.68,7.68,0,0,1-2.74-6.22,29.16,29.16,0,0,0-16.33,5.56q-7,5.13-7,11.55,0,3.85,4,6.23T28.24,77a29.6,29.6,0,0,0,15.9-4.43Q51.3,68.18,60.75,56.9A75.77,75.77,0,0,1,66.87,50.32ZM65.05,31.14q-4.93-2.79-13.57-2.79a43.76,43.76,0,0,0-19.07,4.13q-8.66,4.13-8.66,9.09,0,3.05,3.41,4.76T36.65,48H38Q42.29,37.88,65.05,31.14ZM49.41,59.24A5.84,5.84,0,0,0,47.22,54a13.25,13.25,0,0,0-7-2.61,7.07,7.07,0,0,0-.56,2.71,4.38,4.38,0,0,0,2.13,3.79,9.9,9.9,0,0,0,5.62,1.43A18.66,18.66,0,0,0,49.41,59.24ZM70.24,36.79a9.3,9.3,0,0,0-4.41-5.23,57.52,57.52,0,0,0-13.2,6.86,45.05,45.05,0,0,0-10.19,9.17,73.58,73.58,0,0,0,14.18-4A78.21,78.21,0,0,0,70.24,36.79Zm4.15-4.67q0-1.75-2.82-1.75a16.26,16.26,0,0,0-5.15,1,10,10,0,0,1,4.34,5Q74.39,33.93,74.39,32.12Z"/><path class="cls-2" d="M82.81,47.9q0,1.06-4.63,4.2A5.6,5.6,0,0,0,78,53.53q0,1.54,2,4.88a5.81,5.81,0,0,1,1,2.81q0,2.39-3.24,4.14A16,16,0,0,1,70,67.12a7,7,0,0,1-4-1,3.16,3.16,0,0,1-1.5-2.75,5.41,5.41,0,0,1,2-3.87,6,6,0,0,1,4.1-1.88,2,2,0,0,1,.67.11l3-2.6Q75.5,54,77.73,51.94a8.29,8.29,0,0,1,1.93-3.18,3.68,3.68,0,0,1,2.56-1.33Q82.81,47.43,82.81,47.9ZM77.65,58.36q0-.8-.07-1.58t-.07-2.24a11.14,11.14,0,0,1,.15-2q-2.08,1.88-6,5.31a1.22,1.22,0,0,1,.7,1q0,1.57-3.6,2.12a5.1,5.1,0,0,0-2.5,1.13A2.49,2.49,0,0,0,65.2,64a2.09,2.09,0,0,0,1.08,1.78,4.71,4.71,0,0,0,2.67.72,8.63,8.63,0,0,0,5.91-2.59A7.54,7.54,0,0,0,77.65,58.36Z"/><polygon class="cls-3" points="84.23 29.69 84.24 30.7 84.24 31.71 79.91 31.21 75.58 30.72 79.91 30.2 84.23 29.69"/><polygon class="cls-3" points="84.25 29.69 84.24 30.7 84.24 31.71 88.57 31.21 92.9 30.72 88.58 30.2 84.25 29.69"/><polygon class="cls-3" points="83.23 30.7 84.24 30.7 85.25 30.7 84.76 35.03 84.27 39.36 83.75 35.03 83.23 30.7"/><polygon class="cls-3" points="83.23 30.69 84.24 30.69 85.25 30.7 84.76 26.36 84.27 22.03 83.75 26.36 83.23 30.69"/><polygon class="cls-3" points="83.75 31.2 84.25 30.69 84.75 30.19 86.66 32.59 88.57 34.99 86.16 33.09 83.75 31.2"/><polygon class="cls-3" points="83.74 31.19 84.24 30.69 84.75 30.19 82.35 28.28 79.94 26.36 81.84 28.78 83.74 31.19"/><polygon class="cls-3" points="84.76 31.2 84.26 30.7 83.75 30.19 86.16 28.28 88.56 26.37 86.66 28.78 84.76 31.2"/><polygon class="cls-3" points="84.76 31.2 84.26 30.7 83.75 30.19 81.84 32.6 79.93 35 82.34 33.1 84.76 31.2"/><path class="cls-4" d="M86,120.91V96.48H96.53v2.88H88v7.48h8v2.87H88V118h8.91v2.88Z"/><path class="cls-4" d="M99.5,120.91V96.48h2l7.62,19.18V96.48h1.84v24.43h-2l-7.62-19.2v19.2Z"/><path class="cls-4" d="M117.86,120.91V99.37h-4.78V96.48h11.5v2.88h-4.8v21.55Z"/><path class="cls-4" d="M126.59,120.91V96.48h10.49v2.88h-8.57v7.48h8v2.87h-8V118h8.91v2.88Z"/><path class="cls-4" d="M140.1,120.91V96.48h6.44a5.43,5.43,0,0,1,3,.66,4.48,4.48,0,0,1,1.61,2.32,10.74,10.74,0,0,1,.6,3.68,8.85,8.85,0,0,1-1,4.38,4.55,4.55,0,0,1-3.09,2.27,5.55,5.55,0,0,1,1.16,1.22,17.83,17.83,0,0,1,1.59,3.25l2.52,6.65h-2.42l-1.92-5.08q-.84-2.2-1.39-3.37a6.76,6.76,0,0,0-1-1.63,2.54,2.54,0,0,0-.88-.65,3.49,3.49,0,0,0-1.07-.12H142v10.85ZM142,107.26h4.13a3.92,3.92,0,0,0,2.06-.46,2.84,2.84,0,0,0,1.13-1.47,6.07,6.07,0,0,0,.39-2.19,5,5,0,0,0-.75-2.85,2.64,2.64,0,0,0-2.36-1.12H142Z"/><path class="cls-4" d="M158,120.91V99.37h-4.78V96.48h11.5v2.88H160v21.55Z"/><path class="cls-4" d="M163.64,120.91l5.57-24.43h2.07l5.94,24.43H175l-1.69-7.4h-6.07l-1.59,7.4Zm4.19-10h4.92l-1.51-6.77q-.69-3.08-1-5.07-.28,2.35-.78,4.67Z"/><path class="cls-4" d="M179.08,120.91V96.48H181v24.43Z"/><path class="cls-4" d="M184.37,120.91V96.48h2L194,115.66V96.48h1.84v24.43h-2l-7.62-19.2v19.2Z"/><path class="cls-4" d="M199,120.91V96.48h2.89l3.44,17.3q.48,2.42.69,3.62.25-1.33.77-3.92l3.47-17h2.58v24.43H211V100.47l-4.22,20.45H205l-4.2-20.8v20.8Z"/><path class="cls-4" d="M216,120.91V96.48h10.49v2.88h-8.57v7.48h8v2.87h-8V118h8.91v2.88Z"/><path class="cls-4" d="M229.42,120.91V96.48h2L239,115.66V96.48h1.84v24.43h-2l-7.62-19.2v19.2Z"/><path class="cls-4" d="M247.78,120.91V99.37H243V96.48h11.5v2.88h-4.8v21.55Z"/><path class="cls-4" d="M166.72,109.49"/><path class="cls-5" d="M60.17,109.5"/><polyline class="cls-6" points="105.5 57.5 276.51 57.5 276.51 108.76 256.91 108.76"/><polyline class="cls-7" points="80.5 110.5 48.5 110.5 48.5 104.5"/><circle class="cls-8" cx="50" cy="50" r="48.5"/></g></g></svg>