<svg xmlns="http://www.w3.org/2000/svg" viewBox="0 0 656.27 656.27"><defs><style>.cls-1,.cls-2{fill:none;stroke-miterlimit:10;}.cls-1{stroke:gray;stroke-width:4.81px;}.cls-2{stroke:#999;stroke-width:2.41px;}.cls-3{fill:gray;}</style></defs><title>資產 1</title><g id="圖層_2" data-name="圖層 2"><g id="圖層_1-2" data-name="圖層 1"><circle class="cls-1" cx="328.14" cy="328.14" r="325.73"/><path class="cls-2" d="M502.58,272.79q0,4.43-19.18,20.63a306.91,306.91,0,0,1-38.73,28.07q-17.58,20.19-25.74,33.39t-20.29,41.71q-15.1,34.71-37.25,55.08T299.15,488A315.32,315.32,0,0,1,181.6,510.83q-51,0-82.41-19.84T67.76,438.92q0-27.45,23.76-52.16t65-39.94q41.21-15.23,76.35-15.23a33.48,33.48,0,0,1,5.2.35q0-4.42,3.46-15.59-4.45.36-10.64.35-39.85,0-63.48-12.58t-23.63-33.47q0-36.13,57.17-64.11t131.41-28q58.89,0,96.27,21.08,26-6.91,38.36-6.91,24,0,24,14.17,0,13.11-28,32.59a84.52,84.52,0,0,1,2,16.29q0,19.13-15.59,40.91-4.7,6.55-6.68,6.55a1.33,1.33,0,0,1-1.48-1.06,4.77,4.77,0,0,1,1-1.77q18.31-21.61,18.31-45.34a86,86,0,0,0-1-13.46q-41.33,26-92.19,45.43t-96.89,26.83A73.25,73.25,0,0,0,258.32,333q65.33,8,65.33,50.83v3.54q49.24-9.56,121-70a294,294,0,0,1,32.91-31.88q16.83-13.81,23-13.81A2,2,0,0,1,502.58,272.79Zm-66.57,56q-66.58,53-113.34,62-5,24.27-31.8,44.19t-54.32,19.93q-14.61,0-24.38-6.38t-9.78-15.76q0-9.74,9.28-17.53a31.35,31.35,0,0,1,20.66-7.79q17.32,0,17.32,11.34,0,5.14-5.69,9.21A21.19,21.19,0,0,1,231.34,432q-13.12,0-13.12-8.32a12.8,12.8,0,0,1,1-3.9,8.08,8.08,0,0,0,.49-2.66q0-1.06-1.48-1.06-3.71,0-7.42,5.76t-3.71,10.89q0,8.32,8.41,13.81t21,5.49q25.24,0,51.85-19.66t30.07-40.91a99,99,0,0,1-12.62.71q-31.68,0-50-15.32t-18.31-41.53q-62.36,2.83-109,37.11T81.87,449.55q0,25.68,26.6,41.62t69.66,15.94q58.4,0,106.17-29.58T395.17,372.68A505.84,505.84,0,0,1,436,328.76ZM423.88,200.71q-32.91-18.6-90.58-18.6-69.55,0-127.33,27.54t-57.79,60.66q0,20.37,22.77,31.79t63.35,11.42H243Q271.93,245.69,423.88,200.71ZM319.44,388.27q1.73-21.08-14.6-34.8t-47-17.45a47.21,47.21,0,0,0-3.71,18.07q0,15.77,14.23,25.33T305.83,389A124.55,124.55,0,0,0,319.44,388.27ZM458.53,238.43q-6.44-21.08-29.45-34.89-44.3,15.77-88.1,45.78t-68.06,61.19q44-7.44,94.66-27T458.53,238.43Zm27.72-31.17q0-11.69-18.81-11.69-14.35,0-34.4,6.91,21.28,13.11,29,33.65Q486.24,219.3,486.24,207.26Z"/><path class="cls-2" d="M542.42,312.55q0,7.07-30.93,28.07a37.37,37.37,0,0,0-1.48,9.56q0,10.27,13.12,32.59,6.68,11.16,6.68,18.77,0,15.94-21.65,27.63t-51.35,11.69q-16.83,0-26.85-6.82t-10-18.33q0-13.28,13.24-25.86t27.35-12.58A13.25,13.25,0,0,1,465,378l19.8-17.36q8.91-7.61,23.76-21.08a55.37,55.37,0,0,1,12.87-21.25q8.66-8.86,17.08-8.86Q542.42,309.45,542.42,312.55ZM508,382.42q0-5.31-.49-10.54t-.49-15a74.34,74.34,0,0,1,1-13.28q-13.86,12.58-40.09,35.42,4.7,2.83,4.7,6.91,0,10.45-24,14.17a34,34,0,0,0-16.7,7.53q-7.05,5.94-7.05,12.49,0,7.08,7.18,11.87t17.82,4.78q20.79,0,39.47-17.27T508,382.42Z"/><polygon class="cls-3" points="561.69 194.6 561.71 201.34 561.73 208.08 532.81 204.8 503.89 201.51 532.79 198.06 561.69 194.6"/><polygon class="cls-3" points="561.77 194.6 561.75 201.34 561.73 208.08 590.65 204.8 619.57 201.51 590.67 198.06 561.77 194.6"/><polygon class="cls-3" points="554.99 201.38 561.73 201.36 568.48 201.34 565.19 230.26 561.9 259.18 558.45 230.28 554.99 201.38"/><polygon class="cls-3" points="554.99 201.3 561.73 201.32 568.48 201.34 565.19 172.42 561.9 143.5 558.45 172.4 554.99 201.3"/><polygon class="cls-3" points="558.43 204.68 561.78 201.31 565.13 197.95 577.89 213.98 590.65 230.02 574.54 217.35 558.43 204.68"/><polygon class="cls-3" points="558.39 204.64 561.76 201.29 565.13 197.95 549.09 185.18 533.05 172.42 545.72 188.53 558.39 204.64"/><polygon class="cls-3" points="565.23 204.68 561.86 201.33 558.5 197.98 574.53 185.22 590.57 172.46 577.9 188.57 565.23 204.68"/><polygon class="cls-3" points="565.19 204.72 561.84 201.35 558.5 197.98 545.73 214.02 532.97 230.05 549.08 217.38 565.19 204.72"/></g></g></svg>